<svg xmlns="http://www.w3.org/2000/svg" width="1024" height="1024" style="shape-rendering:geometricPrecision;text-rendering:geometricPrecision;image-rendering:optimizeQuality;fill-rule:evenodd;clip-rule:evenodd"><path fill="#25a5de" d="M584.5 176.5a79.853 79.853 0 0 1 10-7.5c4.753-3.127 9.753-5.46 15-7a234.624 234.624 0 0 1-25 14.5Z" style="opacity:.117"/><path fill="#25a5de" d="M584.5 176.5c-1.014 1.174-2.347 1.84-4 2 .787-1.604 2.12-2.271 4-2Z" style="opacity:.111"/><path fill="#25a5de" d="M580.5 178.5c-.473 1.406-1.473 2.073-3 2 .473-1.406 1.473-2.073 3-2Z" style="opacity:.154"/><path fill="#25a5de" d="M577.5 180.5c-1.014 1.174-2.347 1.84-4 2 .845-2.262 2.178-2.929 4-2Z" style="opacity:.096"/><path fill="#25a5de" d="M573.5 182.5a322.867 322.867 0 0 1-36 20.5c11.389-8.059 23.389-14.892 36-20.5Z" style="opacity:.113"/><path fill="#25a5de" d="M533.5 205.5a10.515 10.515 0 0 1 2.5-3c.519 1.989-.314 2.989-2.5 3ZM533.5 205.5c-1.836 2.088-4.169 3.421-7 4 1.621-2.442 3.954-3.775 7-4Z" style="opacity:.114"/><path fill="#25a5de" d="M526.5 209.5c-4.007 3.674-8.673 6.341-14 8 1.042-2.291 2.542-3.291 4.5-3 2.596-2.765 5.763-4.432 9.5-5Z" style="opacity:.111"/><path fill="#25a5de" d="M512.5 217.5c-1.836 2.088-4.169 3.421-7 4 1.621-2.442 3.954-3.775 7-4Z" style="opacity:.116"/><path fill="#25a5de" d="M505.5 221.5c-3.496 3.156-7.496 5.489-12 7 .453-.958 1.119-1.792 2-2.5a66.568 66.568 0 0 1 10-4.5Z" style="opacity:.109"/><path fill="#25a5de" d="M493.5 228.5c-2.066 1.699-4.4 3.032-7 4 1.621-2.442 3.954-3.775 7-4Z" style="opacity:.12"/><path fill="#25a5de" d="M486.5 232.5a108.477 108.477 0 0 1-21 12 109.094 109.094 0 0 0 10.5-8l1 1c2.596-2.765 5.763-4.432 9.5-5Z" style="opacity:.112"/><path fill="#25a5de" d="M465.5 244.5c-1.014 1.174-2.347 1.84-4 2 .787-1.604 2.12-2.271 4-2Z" style="opacity:.119"/><path fill="#25a5de" d="M461.5 246.5c-.473 1.406-1.473 2.073-3 2 .473-1.406 1.473-2.073 3-2Z" style="opacity:.157"/><path fill="#25a5de" d="M458.5 248.5c-3.496 3.156-7.496 5.489-12 7 .453-.958 1.119-1.792 2-2.5a66.568 66.568 0 0 1 10-4.5Z" style="opacity:.111"/><path fill="#25a5de" d="M446.5 255.5c-.283.789-.783 1.456-1.5 2-.528-1.316-.028-1.983 1.5-2Z" style="opacity:.102"/><path fill="#ec5123" d="M693.5 267.5c36.02-1.197 71.687 2.637 107 11.5a269.227 269.227 0 0 1 30 11c-18 .667-36 .667-54 0-26.455-12.03-54.122-19.53-83-22.5Z" style="opacity:.894"/><path fill="#25a5de" d="M317.5 298.5h539a4.934 4.934 0 0 1-.5 3A10153.552 10153.552 0 0 0 737.5 423l-166 1A28564.888 28564.888 0 0 0 531 675.5a5078.1 5078.1 0 0 1-161.5 53 84132.922 84132.922 0 0 0 48-305h-217a8.43 8.43 0 0 1 .5-4 19773.653 19773.653 0 0 0 116.5-121Z" style="opacity:.994"/><path fill="#ec5124" d="M451.5 734.5c1.527.073 2.527-.594 3-2h1a5.727 5.727 0 0 0 3-1c.992.172 1.658-.162 2-1 104.988-34.899 196.155-91.565 273.5-170 37.091-38.159 66.757-81.492 89-130 8.424-18.267 12.924-37.434 13.5-57.5l-.5-13.5a230.213 230.213 0 0 1-3-15 700.201 700.201 0 0 0 32-31c23.401 25.937 32.067 56.27 26 91-6.856 36.373-19.856 70.373-39 102-28.539 45.897-63.039 87.064-103.5 123.5-54.293 48.332-113.96 88.998-179 122-72.214 34.292-148.214 54.292-228 60a387.93 387.93 0 0 1-73-3c-29.638-4.9-54.804-18.066-75.5-39.5-16.93-21.457-25.097-45.957-24.5-73.5 2.943-45.163 15.776-87.33 38.5-126.5a1359.055 1359.055 0 0 0-8 35c-6.95 30.737-5.617 61.07 4 91 12.922 30.576 35.755 49.076 68.5 55.5 35.973 5.885 71.973 5.885 108 0a662.103 662.103 0 0 0 72-16.5Z" style="opacity:.976"/><path fill="#25a5de" d="M523.5 693.5c1.159-1.877 2.826-2.377 5-1.5a42.47 42.47 0 0 1-5 1.5ZM521.5 694.5c.342-.838 1.008-1.172 2-1-.342.838-1.008 1.172-2 1Z" style="opacity:.124"/><path fill="#25a5de" d="M519.5 695.5c.342-.838 1.008-1.172 2-1-.342.838-1.008 1.172-2 1Z" style="opacity:.12"/><path fill="#25a5de" d="M519.5 695.5c-1.159 1.75-2.826 2.75-5 3 1.159-1.75 2.826-2.75 5-3Z" style="opacity:.119"/><path fill="#25a5de" d="M512.5 699.5c.342-.838 1.008-1.172 2-1-.342.838-1.008 1.172-2 1Z" style="opacity:.124"/><path fill="#25a5de" d="M512.5 699.5c-1.836 2.088-4.169 3.421-7 4 1.836-2.088 4.169-3.421 7-4Z" style="opacity:.12"/><path fill="#25a5de" d="M505.5 703.5c-.502 1.585-1.502 2.085-3 1.5.744-1.039 1.744-1.539 3-1.5Z" style="opacity:.081"/><path fill="#25a5de" d="M499.5 705.5c2.342.275 2.342 1.108 0 2.5-1.259.982-2.592 1.315-4 1 1.593-.949 2.926-2.115 4-3.5Z" style="opacity:.113"/><path fill="#25a5de" d="M493.5 709.5c1.333.667 1.333.667 0 0Z" style="opacity:.137"/><path fill="#25a5de" d="M493.5 710.5c-1.159 1.75-2.826 2.75-5 3 1.159-1.75 2.826-2.75 5-3ZM486.5 714.5c.342-.838 1.008-1.172 2-1-.342.838-1.008 1.172-2 1Z" style="opacity:.1"/><path fill="#25a5de" d="M486.5 714.5c-1.836 2.088-4.169 3.421-7 4 1.836-2.088 4.169-3.421 7-4Z" style="opacity:.121"/><path fill="#25a5de" d="M479.5 718.5a72.236 72.236 0 0 1-14 8c4.007-3.674 8.673-6.341 14-8Z" style="opacity:.115"/><path fill="#25a5de" d="M465.5 726.5c-.787 1.604-2.12 2.271-4 2 1.014-1.174 2.347-1.84 4-2Z" style="opacity:.09"/><path fill="#25a5de" d="m461.5 728.5-1 2h-2c.473-1.406 1.473-2.073 3-2Z" style="opacity:.142"/><path fill="#25a5de" d="M458.5 730.5v1a5.727 5.727 0 0 1-3 1c.473-1.406 1.473-2.073 3-2Z" style="opacity:.067"/><path fill="#9c8490" d="M454.5 732.5c-.473 1.406-1.473 2.073-3 2 .473-1.406 1.473-2.073 3-2Z" style="opacity:.376"/></svg>